<?xml version="1.0" encoding="utf-8"?>
<!-- Uploaded to: SVG Repo, www.svgrepo.com, Generator: SVG Repo Mixer Tools -->
<svg fill="#000000" width="800px" height="800px" viewBox="0 0 32 32" version="1.1" xmlns="http://www.w3.org/2000/svg">
<title>horn-call</title>
<path d="M23.217 10.514l7.47-2.988v-5.284zM21.249 1.076l-1.203 5.576 4.409-5.576zM30.687 16.308v-2.515l-5.284 1.713zM20.629 11.279c-2.966-3.957-6.611-6.382-9.183-6.268h0c-0.593 0.026-1.147 0.164-1.603 0.474-1.059 0.717-0.705 2.317-1.421 3.936-2.448 5.529-4.921 9.54-7.106 12.5v6.45c3.843-1.332 9.565-2.711 17.929-2.988 1.755-0.058 3.102 0.786 4.154 0.073 2.598-1.76 1.657-7.643-2.077-13.155-0.233-0.344-0.449-0.696-0.692-1.020zM12.394 9.29c1.006-0.612 3.684 1.696 5.982 5.154s3.344 6.757 2.338 7.369c-0.414 0.251-1.11 0.009-1.946-0.603-1.193-1.208-2.465-2.764-3.677-4.552-1.201-1.774-2.176-3.526-2.865-5.081-0.323-1.164-0.293-2.007 0.168-2.287z"></path>
</svg>